<svg xmlns="http://www.w3.org/2000/svg" viewBox="0 0 405.62222 205.03378"><title>logo_1</title><g id="Layer_2" data-name="Layer 2"><g id="Layer_1-2" data-name="Layer 1"><g id="fDKGgu"><path d="M21.586,90.82345c-4.02667,3.41132-7.8134,6.61938-12.057,10.21454C5.02232,95.69939,2.86444,89.49883,1.54649,83.13461c-4.32979-20.90811.02895-39.42441,18.21146-52.027,22.80466-15.80629,60.304-16.53835,76.81332,15.07745,8.792,16.83688,7.094,34.06775-2.13278,50.525-5.83728,10.41168-14.07028,17.98578-25.87283,21.20486-.79321.21637-1.36514,1.244-2.04,1.89432,1.04385.83081,1.96152,2.04346,3.15012,2.43634,26.22931,8.66968,31.03534,42.926,12.88751,61.47955a51.52556,51.52556,0,0,1-17.029,10.95526C55.469,198.81692,44.852,201.61083,34.27452,205.03378c-.88629-3.70551-.23859-6.01886,1.99741-8.93192A20.80733,20.80733,0,0,0,40.37831,184.356c.1814-32.63766-.15994-65.27783-.19446-97.91736-.00906-8.593-.17252-17.26282,4.76376-25.02383,3.2236-5.0683,6.1181-7.47223,13.45807-9.07675-1.42249,3.515-2.59082,6.15247-3.56076,8.861-1.25858,3.51434-3.25885,7.058-3.3674,10.63669-.4039,13.31335-.06854,26.64728-.21967,39.97116-.04929,4.34213,2.00293,4.62827,5.34915,3.67969,15.01111-4.25531,24.50278-14.02588,28.71164-28.926,3.52637-12.484,3.75928-24.924-1.35242-37.118C76.49168,31.61215,60.55494,24.738,41.99257,30.47163,15.41928,38.67973,8.5977,64.16985,20.644,89.01357,20.85721,89.45324,21.09456,89.88119,21.586,90.82345Zm29.72513,67.91537-.37607-.00027q0,14.24583-.00748,28.49164c-.00436,2.31-.04852,4.73853,3.36368,3.81616,9.9213-2.682,18.27811-7.60632,21.72339-17.8967,4.18027-12.48578,3.02524-24.65594-4.24878-35.82785-3.48071-5.34595-7.68048-9.88159-14.63852-11.102-4.22659-.74139-5.91766.15988-5.85611,4.551C51.4019,140.09182,51.31111,149.416,51.31111,158.73882Z"/><path d="M226.94056,57.20889c0,10.2554,0,20.21286,0,30.17032q0,12.49763-.00018,24.9953c-.00052,7.31467-.00107,7.31467-8.61813,8.75653v-15.1265c-5.86469,2.08112-10.91528,3.66617-15.75082,5.75024-1.06824.46039-1.68662,2.62518-1.98288,4.11066-2.18216,10.94144-4.23431,21.89539-9.80414,31.80292-5.96469,10.60989-13.97223,18.91476-25.35208,23.81793-3.38852,1.46-5.778,1.67676-8.04245-1.6944a77.03612,77.03612,0,0,0-5.92529-6.95358c.61426-.4213.95-.84012,1.33035-.88544,19.87762-2.36935,31.27838-14.3851,36.41428-32.8363,2.84836-10.23294,4.65891-20.75876,6.8334-31.17426,2.38052-11.40234,6.37775-22.059,13.97885-31.09085A27.94827,27.94827,0,0,1,226.94056,57.20889ZM203.1169,104.42068c4.36066-1.628,8.36279-2.78833,12.01007-4.64551a6.5552,6.5552,0,0,0,3.14313-4.61371c.3075-7.48111.118-14.98376.04761-22.47815a44.18033,44.18033,0,0,0-.503-4.42529C209.69365,74.04321,202.55809,91.56115,203.1169,104.42068Z"/><path d="M249.9247,92.73632c2.28421-2.62662,4.90482-5.03336,6.79138-7.91989,6.40256-9.7962,7.25891-21.27414,9.227-32.37222,3.073-17.32831,9.33377-32.94531,23.209-44.62015a24.039,24.039,0,0,1,4.04053-2.91031c13.72131-7.32005,10.46844-7.17209,20.40363,5.30647-1.26385.27855-2.3028.53857-3.3537.73451-19.22144,3.58382-29.34512,16.44864-34.31937,34.18881-2.64227,9.42337-4.08279,19.19641-6.95761,28.53714-1.67932,5.45645-4.86917,10.52213-7.86816,15.46722-1.50668,2.48431-1.62622,3.96808.54666,5.91031,3.33707,2.98288,6.47168,6.19229,9.6922,9.30557l-.17123,1.68463c-3.36.14926-7.39929,1.51828-9.90063.1254-2.84525-1.58444-4.31677-5.6358-6.50732-8.79041-3.44635,2.14264-6.88522,3.1243-6.689,8.047.30179,7.5715-.00708,7.5838-8.45035,9.39667-.09894-1.82721-.27258-3.57248-.27567-5.31808q-.04376-24.73663-.03687-49.4733c-.00253-7.71875.04169-7.75986,9.07187-8.77866V91.95043Z"/><path d="M104.58262,155.14443c-.09586-1.46362-.27005-2.89871-.27161-4.334-.01889-17.1308.0885-34.26263-.09311-51.39151-.03839-3.62167.89288-5.49976,4.64468-6.06686,4.08414-.6174,8.06-1.942,12.14191-2.58444,13.08551-2.05957,21.75244,9.67691,20.44092,21.41266a26.46129,26.46129,0,0,1-11.424,19.60266c-1.328.93451-2.58771,1.96622-4.89069,3.72644,4.25229,3.47684,8.07144,6.59955,11.83755,9.67886-1.005,1.13882-1.15665,1.47147-1.39853,1.5614-8.08047,3.005-8.07819,2.99915-12.92844-4.004a22.66513,22.66513,0,0,0-2.93918-4.00876c-2.15973-1.97217-6.28772-.08939-6.70874,3.01538a32.07286,32.07286,0,0,0-.03766,4.485C113.00529,153.82931,113.00725,153.82931,104.58262,155.14443Zm8.35123-40.25717c0,4.65341.04025,9.30731-.01254,13.96011-.04315,3.802,1.47083,4.70261,4.9541,3.1488,9.09766-4.05817,15.16061-15.80084,13.09943-25.66687-1.25949-6.02863-8.38425-11.01248-14.3129-9.51007a5.94257,5.94257,0,0,0-3.56824,4.12509C112.62248,105.54955,112.92387,110.23382,112.93385,114.88726Z"/><path d="M348.78792,67.18417c4.23407,3.76688,7.81274,6.95068,12.054,10.724-2.722.92047-4.58,1.38391-6.29224,2.16623-2.60291,1.18918-4.30463.6011-5.69653-1.92758a28.21794,28.21794,0,0,0-4.2793-6.11884c-1.04913-1.07794-3.21777-2.22028-4.31586-1.81091-1.4455.53891-2.62109,2.43848-3.36169,4.0123-.513,1.09012-.09668,2.61807-.09357,3.95038.017,7.21252.01715,7.21252-8.16162,8.65121-.11469-1.61728-.31976-3.181-.3219-4.745-.02313-16.98746.09491-33.97623-.10132-50.96146-.04224-3.65407.988-5.54247,4.64038-6.15369,3.9259-.657,7.76251-1.93283,11.70209-2.40651,11.288-1.35721,19.82416,5.85257,20.53076,17.23927.58826,9.47891-2.83826,17.24384-10.437,23.06238C353.09456,64.06027,351.49116,65.1975,348.78792,67.18417ZM336.79628,46.33358c0,4.65054-.05853,9.302.01672,13.95132.07324,4.52692,1.34332,5.22348,5.45355,3.15381a24.17736,24.17736,0,0,0,12.64374-24.55077c-.94537-5.97525-7.088-10.94237-13.21149-10.63254-3.20715.16225-5.27924,1.209-4.98224,5.12875C337.04194,37.67785,336.79066,42.01522,336.79628,46.33358Z"/><path d="M294.75184,92.21114c7.636-2.37549,14.40594-4.48154,21.41156-6.66092.55548,4.66-1.26788,6.99005-5.43976,8.1644-8.14374,2.29239-16.19763,4.90356-25.015,7.60526-.16132-2.00964-.39124-3.55661-.39349-5.10394-.02563-17.487.06476-34.97479-.08716-52.46054-.02911-3.35042.77106-4.98256,4.27777-5.908,7.85883-2.07393,15.56189-4.73816,23.754-7.29486.93488,1.60966,1.80737,3.11182,3.03638,5.22791-5.91742,1.8454-11.36639,3.775-16.944,5.202-3.62042.92622-5.434,2.43391-4.89783,6.45976.38684,2.90451.07544,5.902.07544,10.0278,7.88708-2.89648,14.91632-5.47791,21.93506-8.05545,1.82806,4.982.42725,7.4993-4.36035,8.74091a105.09947,105.09947,0,0,0-14.10425,4.96765c-1.35217.56625-3.06073,2.35373-3.1051,3.63361C294.61317,74.8847,294.75184,83.02728,294.75184,92.21114Z"/><path d="M178.17622,71.72274c.98233,1.97406,1.70261,3.42157,2.67337,5.37244-5.32687,1.65787-10.27167,3.54144-15.38187,4.687-4.78351,1.07239-7.23532,3.16782-6.43057,8.38007.3692,2.39117.06284,4.88666.06284,8.43976,4.45532-1.5513,7.97562-2.74005,11.46884-4.00363,3.57263-1.29233,7.11881-2.65787,10.6936-3.99774,1.86331,5.02081.3479,7.6156-4.557,8.90546a116.65729,116.65729,0,0,0-14.11365,4.95236c-1.25885.51141-2.92151,2.09116-2.956,3.22455-.252,8.26764-.13568,16.54648-.13568,25.70074,7.50406-2.2923,14.269-4.3588,21.40057-6.53729.29626,3.71518-.20682,6.51764-4.25476,7.715-8.4429,2.49734-16.83905,5.153-25.95291,7.95853-.148-1.90829-.37057-3.45743-.37274-5.0069-.02466-17.48788.09106-34.977-.10168-52.46277-.04053-3.675,1.09982-5.15482,4.66925-6.10052C162.582,76.91125,170.1154,74.26559,178.17622,71.72274Z"/><path d="M372.96016,55.57494c5.73871,3.47864,10.51489,6.94113,15.77136,9.36a7.17492,7.17492,0,0,0,9.55041-3.15808,7.84751,7.84751,0,0,0-1.50256-10.07391c-4.11707-3.83209-8.54694-7.32611-12.785-11.031a61.54664,61.54664,0,0,1-7.24127-6.78249c-3.98138-4.8279-6.21307-10.2429-3.60858-16.60527,2.69922-6.594,8.10431-9.92427,14.72186-10.29274,4.88757-.27214,9.87488,1.24721,16.03253,2.14565-2.22113,3.792-3.52277,6.01411-4.99695,8.53087-2.32788-1.68307-4.32941-3.33562-6.5238-4.67159-3.89209-2.36955-7.5918-2.199-10.73761,1.435a7.855,7.855,0,0,0,.37958,10.87956c3.58618,3.6687,7.64276,6.88905,11.59,10.19054,5.26855,4.40662,10.45337,8.7729,11.75073,16.12187a15.7301,15.7301,0,0,1-10.69977,18.02658c-9.90741,3.14844-20.41553.25632-26.32184-7.47455C370.04774,59.73495,371.81941,57.20428,372.96016,55.57494Z"/></g></g></g></svg>